<svg width="40" height="40" viewBox="0 0 40 40" fill="none" xmlns="http://www.w3.org/2000/svg">
<path d="M8.125 3.75C5.71289 3.75 3.75 5.71289 3.75 8.125V31.875C3.75 34.2871 5.71289 36.25 8.125 36.25H31.875C34.2871 36.25 36.25 34.2871 36.25 31.875V8.125C36.25 5.71289 34.2871 3.75 31.875 3.75H8.125ZM8.125 5H31.875C33.6011 5 35 6.39893 35 8.125V31.875C35 33.6011 33.6011 35 31.875 35H24.9365V26.8579H28.6304C28.9355 26.8579 29.1968 26.6382 29.248 26.3354L29.9585 21.9897C30.0195 21.6089 29.7266 21.2622 29.3408 21.2622H24.9365V20.2515C24.9365 19.0649 25.1831 18.5352 26.6406 18.5352H29.5483C29.8926 18.5352 30.1733 18.2568 30.1733 17.9102V13.3838C30.1733 13.0615 29.9316 12.7954 29.6118 12.7637C28.6816 12.6709 26.8384 12.5 25.9741 12.5C21.9507 12.5 19.353 15.2686 19.353 19.5532V21.2622H15.625C15.2808 21.2622 15 21.543 15 21.8872V26.2329C15 26.5796 15.2808 26.8579 15.625 26.8579H19.3506V35H8.125C6.39893 35 5 33.6011 5 31.875V8.125C5 6.39893 6.39893 5 8.125 5ZM7.5 7.5C7.15332 7.5 6.875 7.78076 6.875 8.125V9.375C6.875 9.71924 7.15332 10 7.5 10C7.84668 10 8.125 9.71924 8.125 9.375V8.125C8.125 7.78076 7.84668 7.5 7.5 7.5ZM10.625 7.5C10.2783 7.5 10 7.78076 10 8.125V9.375C10 9.71924 10.2783 10 10.625 10C10.9717 10 11.25 9.71924 11.25 9.375V8.125C11.25 7.78076 10.9717 7.5 10.625 7.5ZM13.75 7.5C13.4033 7.5 13.125 7.78076 13.125 8.125V9.375C13.125 9.71924 13.4033 10 13.75 10C14.0967 10 14.375 9.71924 14.375 9.375V8.125C14.375 7.78076 14.0967 7.5 13.75 7.5ZM16.875 7.5C16.5283 7.5 16.25 7.78076 16.25 8.125V9.375C16.25 9.71924 16.5283 10 16.875 10C17.2217 10 17.5 9.71924 17.5 9.375V8.125C17.5 7.78076 17.2217 7.5 16.875 7.5ZM20 7.5C19.6533 7.5 19.375 7.78076 19.375 8.125V9.375C19.375 9.71924 19.6533 10 20 10C20.3467 10 20.625 9.71924 20.625 9.375V8.125C20.625 7.78076 20.3467 7.5 20 7.5ZM23.125 7.5C22.7783 7.5 22.5 7.78076 22.5 8.125V9.375C22.5 9.71924 22.7783 10 23.125 10C23.4717 10 23.75 9.71924 23.75 9.375V8.125C23.75 7.78076 23.4717 7.5 23.125 7.5ZM26.25 7.5C25.9033 7.5 25.625 7.78076 25.625 8.125V9.375C25.625 9.71924 25.9033 10 26.25 10C26.5967 10 26.875 9.71924 26.875 9.375V8.125C26.875 7.78076 26.5967 7.5 26.25 7.5ZM29.375 7.5C29.0283 7.5 28.75 7.78076 28.75 8.125V9.375C28.75 9.71924 29.0283 10 29.375 10C29.7217 10 30 9.71924 30 9.375V8.125C30 7.78076 29.7217 7.5 29.375 7.5ZM32.5 7.5C32.1533 7.5 31.875 7.78076 31.875 8.125V9.375C31.875 9.71924 32.1533 10 32.5 10C32.8467 10 33.125 9.71924 33.125 9.375V8.125C33.125 7.78076 32.8467 7.5 32.5 7.5ZM25.9741 13.75C26.9312 13.75 27.9199 13.8062 28.9233 13.9185V17.2852H26.6431C23.9941 17.2852 23.689 18.9771 23.689 20.2515V22.5122H28.606L28.0981 25.6079H23.6865V35H20.6006V25.6079H16.25V22.5122H20.603V19.5532C20.603 15.9204 22.6099 13.75 25.9741 13.75Z" fill="white"/>
</svg>
