<svg width="120" height="120" viewBox="0 0 120 120" fill="none" xmlns="http://www.w3.org/2000/svg">
<path d="M95.5 109.875C95 109.875 94.5417 109.812 94.125 109.688C93.7083 109.562 93.2917 109.292 92.875 108.875L64.75 80.75V71.25L71.125 64.875H80.625L108.75 93C109.167 93.4167 109.438 93.8333 109.562 94.25C109.688 94.6667 109.75 95.125 109.75 95.625C109.75 96.125 109.688 96.5833 109.562 97C109.438 97.4167 109.167 97.8333 108.75 98.25L98.125 108.875C97.7083 109.292 97.2917 109.562 96.875 109.688C96.4583 109.812 96 109.875 95.5 109.875ZM95.5 101L100.875 95.625L75.875 70.625L70.5 76L95.5 101ZM24.375 110C23.875 110 23.3958 109.917 22.9375 109.75C22.4792 109.583 22.0417 109.292 21.625 108.875L11.125 98.375C10.7083 97.9583 10.4167 97.5208 10.25 97.0625C10.0833 96.6042 10 96.125 10 95.625C10 95.125 10.0833 94.6667 10.25 94.25C10.4167 93.8333 10.7083 93.4167 11.125 93L39.25 64.875H49.875L54.625 60.125L32.75 38.25H25.625L10 22.625L22.375 10.25L38 25.875V33L59.875 54.875L76.125 38.625L67.75 30.25L74.75 23.25H60.625L58.375 21L74.375 5L76.625 7.25V21.375L83.625 14.375L104.75 35.5C106 36.75 106.979 38.1875 107.688 39.8125C108.396 41.4375 108.75 43.1667 108.75 45C108.75 46.5833 108.5 48.1458 108 49.6875C107.5 51.2292 106.708 52.6667 105.625 54L95 43.375L88 50.375L81.5 43.875L55.125 70.25V80.75L27 108.875C26.5833 109.292 26.1667 109.583 25.75 109.75C25.3333 109.917 24.875 110 24.375 110ZM24.375 101L49.375 76L44 70.625L19 95.625L24.375 101Z" fill="#0B1370"/>
</svg>
