<svg width="120" height="120" viewBox="0 0 120 120" fill="none" xmlns="http://www.w3.org/2000/svg">
<path d="M88.125 104L55.875 71.5C53.9583 72.1667 52.0417 72.7083 50.125 73.125C48.2083 73.5417 46.25 73.75 44.25 73.75C36.1667 73.75 29.2917 70.9375 23.625 65.3125C17.9583 59.6875 15.125 52.8333 15.125 44.75C15.125 42.1667 15.4583 39.6458 16.125 37.1875C16.7917 34.7292 17.75 32.4167 19 30.25L37.125 48.375L48.625 37.625L30 19C32.1667 17.75 34.4583 16.7708 36.875 16.0625C39.2917 15.3542 41.75 15 44.25 15C52.5 15 59.5208 17.8958 65.3125 23.6875C71.1042 29.4792 74 36.5 74 44.75C74 46.75 73.7917 48.7083 73.375 50.625C72.9583 52.5417 72.4167 54.4583 71.75 56.375L104.125 88.625C105.042 89.5417 105.5 90.6458 105.5 91.9375C105.5 93.2292 105.042 94.3333 104.125 95.25L94.625 104C93.7083 104.917 92.625 105.375 91.375 105.375C90.125 105.375 89.0417 104.917 88.125 104ZM91.625 96.875L96.625 91.875L62.5 57.75C63.8333 56 64.8333 53.9375 65.5 51.5625C66.1667 49.1875 66.5 46.9167 66.5 44.75C66.5 38.5 64.1875 33.2083 59.5625 28.875C54.9375 24.5417 49.6667 22.3333 43.75 22.25L56.375 35.125C57.125 35.875 57.5 36.7917 57.5 37.875C57.5 38.9583 57.125 39.875 56.375 40.625L39.875 56.125C39.125 56.875 38.2083 57.25 37.125 57.25C36.0417 57.25 35.125 56.875 34.375 56.125L22.25 44.125C22.5 50.5417 24.7708 55.8333 29.0625 60C33.3542 64.1667 38.4167 66.25 44.25 66.25C46.3333 66.25 48.5417 65.9167 50.875 65.25C53.2083 64.5833 55.25 63.5833 57 62.25L91.625 96.875Z" fill="#0B1370"/>
</svg>
