<svg width="134" height="75" viewBox="0 0 134 75" fill="none" xmlns="http://www.w3.org/2000/svg">
<path d="M87.7773 75V63.3252H78.5635V61.3916L80.5117 59.4434H90.2236L94.1055 63.3252V75H87.7773ZM86.752 65.9473V68.6426H83.4121V71.3672H86.752V73.0811L84.8184 75H79.8672L77.2598 72.4365V68.54L79.8672 65.9473H86.752Z" fill="white"/>
<path d="M103.378 75H100.785L96.9033 71.1182V63.3252L100.785 59.4434H103.378V75ZM104.403 63.3252V59.4434H109.867L113.749 63.3252V65.6543H107.274V63.3252H104.403ZM104.403 75V71.3672H107.274V69.4189H113.749V71.1182L109.867 75H104.403Z" fill="white"/>
<path d="M122.772 75H120.18L116.298 71.1182V63.3252L120.18 59.4434H122.772V75ZM123.798 68.7598V66.0498H127.211V63.3252H123.798V59.4434H129.291L133.173 63.3252V68.7598H123.798ZM123.798 75V71.3672H132.499V73.0518L130.565 75H123.798Z" fill="white"/>
<path d="M34.7477 75V36.123H47.697V75H34.7477ZM49.7477 43.8867V36.123H64.5427L72.3356 43.8867V55.5469L66.3591 61.5234L65.9489 60.7031L53.7907 62.3145L54.2595 63.3398H49.7477V55.8105H59.4743V43.8867H49.7477ZM73.654 75H59.8259L54.2595 63.3398H64.5427L66.3591 61.5234L73.654 75Z" fill="white"/>
<path d="M67.8672 28.1182L63.9854 32H59.6494V28.3672H61.2607V20.3252H59.6494V16.4434H63.9854L67.8672 20.3252V28.1182ZM56.9395 28.3672H58.624V32H54.2734L50.3916 28.1182V20.3252L54.2734 16.4434H58.624V20.3252H56.9395V28.3672Z" fill="white"/>
<path d="M77.4473 28.1182H81.7246V32H74.8691L70.9727 28.1182V20.3252H69.6836V16.4434H70.9727V14.7588L77.4473 12.5615V28.1182ZM78.4727 20.3252V16.4434H81.959V20.3252H78.4727Z" fill="white"/>
<path d="M101.559 28.1182L97.6768 32H93.3408V28.3672H94.9521V20.3252H93.3408V16.4434H97.6768L101.559 20.3252V28.1182ZM90.6309 28.3672H92.3154V32H87.9648L84.083 28.1182V20.3252L87.9648 16.4434H92.3154V20.3252H90.6309V28.3672Z" fill="white"/>
<path d="M114.757 20.3252H112.003V18.626L114.171 16.4434H118.097L121.246 20.0762V24.1045H114.757V20.3252ZM104.488 32V16.4434H110.963V32H104.488Z" fill="white"/>
<path d="M0.457031 0.123047H14.2266L24.6562 17.4082L32.8594 3.3457V22.916L23.5137 39L0.457031 0.123047ZM34.7637 39V0.123047H47.7129V39H34.7637ZM0.427734 39V3.72656L12.5273 24.0293V39H0.427734Z" fill="white"/>
</svg>
