<svg width="40" height="40" viewBox="0 0 40 40" fill="none" xmlns="http://www.w3.org/2000/svg">
<path d="M8.125 3.75C5.71289 3.75 3.75 5.71289 3.75 8.125V31.875C3.75 34.2871 5.71289 36.25 8.125 36.25H31.875C34.2871 36.25 36.25 34.2871 36.25 31.875V8.125C36.25 5.71289 34.2871 3.75 31.875 3.75H8.125ZM8.125 5H31.875C33.5986 5 35 6.40137 35 8.125V31.875C35 33.5986 33.5986 35 31.875 35H8.125C6.40137 35 5 33.5986 5 31.875V8.125C5 6.40137 6.40137 5 8.125 5ZM30 8.125C28.9673 8.125 28.125 8.96729 28.125 10C28.125 11.0327 28.9673 11.875 30 11.875C31.0327 11.875 31.875 11.0327 31.875 10C31.875 8.96729 31.0327 8.125 30 8.125ZM30 9.08203C30.5054 9.08203 30.918 9.49463 30.918 10C30.918 10.5054 30.5054 10.918 30 10.918C29.4946 10.918 29.082 10.5054 29.082 10C29.082 9.49463 29.4946 9.08203 30 9.08203ZM20 11.25C15.1758 11.25 11.25 15.1758 11.25 20C11.25 24.8242 15.1758 28.75 20 28.75C24.8242 28.75 28.75 24.8242 28.75 20C28.75 15.1758 24.8242 11.25 20 11.25ZM20 12.5C24.1357 12.5 27.5 15.8643 27.5 20C27.5 24.1357 24.1357 27.5 20 27.5C15.8643 27.5 12.5 24.1357 12.5 20C12.5 15.8643 15.8643 12.5 20 12.5ZM20 13.75C16.5527 13.75 13.75 16.5527 13.75 20C13.75 23.4473 16.5527 26.25 20 26.25C23.4473 26.25 26.25 23.4473 26.25 20C26.25 16.5527 23.4473 13.75 20 13.75ZM20 15C22.7563 15 25 17.2437 25 20C25 22.7563 22.7563 25 20 25C17.2437 25 15 22.7563 15 20C15 17.2437 17.2437 15 20 15ZM7.5 30.625C7.15576 30.625 6.875 30.9058 6.875 31.25V32.5C6.875 32.8442 7.15576 33.125 7.5 33.125C7.84424 33.125 8.125 32.8442 8.125 32.5V31.25C8.125 30.9058 7.84424 30.625 7.5 30.625ZM10.625 30.625C10.2808 30.625 10 30.9058 10 31.25V32.5C10 32.8442 10.2808 33.125 10.625 33.125C10.9692 33.125 11.25 32.8442 11.25 32.5V31.25C11.25 30.9058 10.9692 30.625 10.625 30.625ZM13.75 30.625C13.4058 30.625 13.125 30.9058 13.125 31.25V32.5C13.125 32.8442 13.4058 33.125 13.75 33.125C14.0942 33.125 14.375 32.8442 14.375 32.5V31.25C14.375 30.9058 14.0942 30.625 13.75 30.625ZM16.875 30.625C16.5308 30.625 16.25 30.9058 16.25 31.25V32.5C16.25 32.8442 16.5308 33.125 16.875 33.125C17.2192 33.125 17.5 32.8442 17.5 32.5V31.25C17.5 30.9058 17.2192 30.625 16.875 30.625ZM20 30.625C19.6558 30.625 19.375 30.9058 19.375 31.25V32.5C19.375 32.8442 19.6558 33.125 20 33.125C20.3442 33.125 20.625 32.8442 20.625 32.5V31.25C20.625 30.9058 20.3442 30.625 20 30.625ZM23.125 30.625C22.7808 30.625 22.5 30.9058 22.5 31.25V32.5C22.5 32.8442 22.7808 33.125 23.125 33.125C23.4692 33.125 23.75 32.8442 23.75 32.5V31.25C23.75 30.9058 23.4692 30.625 23.125 30.625ZM26.25 30.625C25.9058 30.625 25.625 30.9058 25.625 31.25V32.5C25.625 32.8442 25.9058 33.125 26.25 33.125C26.5942 33.125 26.875 32.8442 26.875 32.5V31.25C26.875 30.9058 26.5942 30.625 26.25 30.625ZM29.375 30.625C29.0308 30.625 28.75 30.9058 28.75 31.25V32.5C28.75 32.8442 29.0308 33.125 29.375 33.125C29.7192 33.125 30 32.8442 30 32.5V31.25C30 30.9058 29.7192 30.625 29.375 30.625ZM32.5 30.625C32.1558 30.625 31.875 30.9058 31.875 31.25V32.5C31.875 32.8442 32.1558 33.125 32.5 33.125C32.8442 33.125 33.125 32.8442 33.125 32.5V31.25C33.125 30.9058 32.8442 30.625 32.5 30.625Z" fill="white"/>
</svg>
