<svg width="120" height="120" viewBox="0 0 120 120" fill="none" xmlns="http://www.w3.org/2000/svg">
<path d="M10 100V47.5C10 45.5 10.75 43.75 12.25 42.25C13.75 40.75 15.5 40 17.5 40H35V27.5C35 25.5 35.75 23.75 37.25 22.25C38.75 20.75 40.5 20 42.5 20H77.5C79.5 20 81.25 20.75 82.75 22.25C84.25 23.75 85 25.5 85 27.5V40H102.5C104.5 40 106.25 40.75 107.75 42.25C109.25 43.75 110 45.5 110 47.5V100H10ZM17.5 92.5H102.5V73.75H88.75V78.75H81.25V73.75H38.75V78.75H31.25V73.75H17.5V92.5ZM17.5 47.5V66.25H31.25V61.25H38.75V66.25H81.25V61.25H88.75V66.25H102.5V47.5H17.5ZM42.5 40H77.5V27.5H42.5V40Z" fill="#0B1370"/>
</svg>
