<svg width="40" height="40" viewBox="0 0 40 40" fill="none" xmlns="http://www.w3.org/2000/svg">
<path d="M8.125 3.75C5.71289 3.75 3.75 5.71289 3.75 8.125V31.875C3.75 34.2871 5.71289 36.25 8.125 36.25H31.875C34.2871 36.25 36.25 34.2871 36.25 31.875V8.125C36.25 5.71289 34.2871 3.75 31.875 3.75H8.125ZM8.125 5H31.875C33.5986 5 35 6.40137 35 8.125V31.875C35 33.5986 33.5986 35 31.875 35H8.125C6.40137 35 5 33.5986 5 31.875V8.125C5 6.40137 6.40137 5 8.125 5ZM7.5 7.5C7.15576 7.5 6.875 7.77832 6.875 8.125V9.375C6.875 9.72168 7.15576 10 7.5 10C7.84424 10 8.125 9.72168 8.125 9.375V8.125C8.125 7.77832 7.84424 7.5 7.5 7.5ZM10.625 7.5C10.2808 7.5 10 7.77832 10 8.125V9.375C10 9.72168 10.2808 10 10.625 10C10.9692 10 11.25 9.72168 11.25 9.375V8.125C11.25 7.77832 10.9692 7.5 10.625 7.5ZM13.75 7.5C13.4058 7.5 13.125 7.77832 13.125 8.125V9.375C13.125 9.72168 13.4058 10 13.75 10C14.0942 10 14.375 9.72168 14.375 9.375V8.125C14.375 7.77832 14.0942 7.5 13.75 7.5ZM16.875 7.5C16.5308 7.5 16.25 7.77832 16.25 8.125V9.375C16.25 9.72168 16.5308 10 16.875 10C17.2192 10 17.5 9.72168 17.5 9.375V8.125C17.5 7.77832 17.2192 7.5 16.875 7.5ZM20 7.5C19.6558 7.5 19.375 7.77832 19.375 8.125V9.375C19.375 9.72168 19.6558 10 20 10C20.3442 10 20.625 9.72168 20.625 9.375V8.125C20.625 7.77832 20.3442 7.5 20 7.5ZM23.125 7.5C22.7808 7.5 22.5 7.77832 22.5 8.125V9.375C22.5 9.72168 22.7808 10 23.125 10C23.4692 10 23.75 9.72168 23.75 9.375V8.125C23.75 7.77832 23.4692 7.5 23.125 7.5ZM26.25 7.5C25.9058 7.5 25.625 7.77832 25.625 8.125V9.375C25.625 9.72168 25.9058 10 26.25 10C26.5942 10 26.875 9.72168 26.875 9.375V8.125C26.875 7.77832 26.5942 7.5 26.25 7.5ZM29.375 7.5C29.0308 7.5 28.75 7.77832 28.75 8.125V9.375C28.75 9.72168 29.0308 10 29.375 10C29.7192 10 30 9.72168 30 9.375V8.125C30 7.77832 29.7192 7.5 29.375 7.5ZM32.5 7.5C32.1558 7.5 31.875 7.77832 31.875 8.125V9.375C31.875 9.72168 32.1558 10 32.5 10C32.8442 10 33.125 9.72168 33.125 9.375V8.125C33.125 7.77832 32.8442 7.5 32.5 7.5ZM24.6582 12.998C21.9678 12.998 19.7778 15.1855 19.7778 17.876C19.7778 18.0054 19.7827 18.1348 19.7925 18.2617C16.731 17.9297 13.8965 16.3989 11.936 13.9917C11.8237 13.8525 11.6479 13.7769 11.4673 13.7891C11.2891 13.8037 11.1279 13.9062 11.0376 14.0625C10.6055 14.8047 10.376 15.6519 10.376 16.5137C10.376 17.4316 10.6323 18.313 11.0962 19.0723C10.9399 19.0063 10.7642 19.0186 10.6152 19.104C10.4492 19.1992 10.3442 19.3774 10.3418 19.5703V19.6313C10.3418 21.1572 11.0547 22.5488 12.1875 23.4521C12.1143 23.4839 12.0508 23.5303 11.9971 23.5913C11.8701 23.7354 11.8262 23.938 11.8848 24.1211C12.3706 25.6348 13.5474 26.7847 15.0024 27.2656C13.8086 27.9224 12.4707 28.2666 11.0742 28.2666C10.7422 28.2666 10.4175 28.2471 10.1074 28.2104C9.85107 28.1787 9.61182 28.3276 9.52393 28.5693C9.43848 28.811 9.53125 29.0771 9.74609 29.2163C11.8188 30.5469 14.2163 31.25 16.6797 31.25C21.521 31.25 24.5508 28.9648 26.2402 27.0483C28.3447 24.6606 29.5508 21.5015 29.5508 18.3789C29.5508 18.2812 29.5508 18.1836 29.5483 18.0859C30.3491 17.4707 31.0425 16.7285 31.6089 15.8789C31.7456 15.6787 31.731 15.4102 31.5723 15.2246C31.416 15.0366 31.1523 14.9756 30.9302 15.0757C30.7886 15.1367 30.647 15.1953 30.5005 15.2515C30.752 14.8755 30.9521 14.4629 31.0913 14.0283C31.1597 13.811 31.0889 13.5742 30.9106 13.4326C30.7324 13.291 30.4858 13.2739 30.2905 13.3887C29.5752 13.8159 28.8037 14.1235 27.9956 14.314C27.0947 13.4717 25.896 12.998 24.6582 12.998ZM24.6582 14.0942C25.7007 14.0942 26.7065 14.5288 27.4194 15.2905C27.5488 15.4272 27.7393 15.4883 27.9272 15.4517C28.374 15.3638 28.811 15.2417 29.2383 15.0903C28.9917 15.3613 28.7036 15.5957 28.3838 15.7886C28.1616 15.9204 28.064 16.1914 28.147 16.4355C28.23 16.6797 28.4741 16.8335 28.7305 16.8042C28.9941 16.77 29.2554 16.7285 29.5142 16.6748C29.248 16.9263 28.9673 17.1582 28.6694 17.373C28.5205 17.4805 28.4351 17.6562 28.4424 17.8418C28.4497 18.02 28.457 18.1982 28.457 18.3789C28.457 25.7495 22.4683 30.1538 16.6797 30.1538C15.1538 30.1538 13.6548 29.8584 12.2559 29.2896C13.9111 29.082 15.459 28.4375 16.7896 27.3926C16.9727 27.251 17.0459 27.0093 16.9727 26.7871C16.8994 26.5674 16.6943 26.4185 16.4648 26.4136C15.1392 26.3892 13.9502 25.6787 13.2886 24.5801C13.7012 24.5728 14.1089 24.5166 14.5068 24.4092C14.7534 24.3433 14.9194 24.1162 14.9121 23.8623C14.9023 23.6084 14.7192 23.3911 14.4702 23.3423C12.9956 23.0444 11.8579 21.8994 11.5332 20.4492C11.9531 20.5811 12.3926 20.6543 12.832 20.6665C13.0786 20.686 13.2983 20.52 13.3716 20.2881C13.4473 20.0562 13.3594 19.8022 13.1543 19.6655C12.1021 18.96 11.4722 17.7832 11.4722 16.5161C11.4722 16.1157 11.5356 15.7178 11.6577 15.3418C13.9307 17.7734 17.0728 19.2432 20.4102 19.4116C20.5884 19.4214 20.7471 19.3481 20.8594 19.2163C20.9692 19.0845 21.0107 18.9087 20.9741 18.7402C20.9082 18.4595 20.874 18.1689 20.874 17.8784C20.874 15.791 22.5708 14.0942 24.6582 14.0942Z" fill="white"/>
</svg>
